<svg width="148" height="120" viewBox="0 0 148 120" xmlns="http://www.w3.org/2000/svg"><title>NASALogo</title><g fill="none" fill-rule="evenodd"><ellipse fill="#0B3D91" cx="68.841" cy="60" rx="60.007" ry="59.72"/><g transform="translate(23.92 3.463)" fill="#FFF"><ellipse cx="41.379" cy="8.287" rx=".673" ry=".67"/><ellipse cx="48.285" cy="9.18" rx=".673" ry=".67"/><ellipse cx="57.345" cy="21.32" rx=".673" ry=".67"/><ellipse cx="7.653" cy="83.808" rx=".673" ry=".67"/><ellipse cx="9.402" cy="89.164" rx=".673" ry=".67"/><ellipse cx="1.06" cy="84.611" rx=".504" ry=".501"/><ellipse cx="28.417" cy="95.133" rx=".505" ry=".503"/><ellipse cx="71.326" cy="86.263" rx=".504" ry=".501"/><ellipse cx="83.795" cy="72.783" rx=".505" ry=".503"/><ellipse cx="22.677" cy="25.236" rx=".504" ry=".501"/><ellipse cx="36.401" cy="15.205" rx=".504" ry=".501"/><ellipse cx="34.91" cy="14.223" rx=".504" ry=".501"/><ellipse cx="33.565" cy="13.241" rx=".504" ry=".501"/><ellipse cx="24.83" cy="27.826" rx=".504" ry=".501"/><ellipse cx="45.044" cy="1.726" rx=".504" ry=".501"/><ellipse cx="48.365" cy="16.187" rx=".504" ry=".501"/><ellipse cx="43.128" cy="13.363" rx=".504" ry=".501"/><ellipse cx="34.158" cy="17.203" rx=".504" ry=".501"/><ellipse cx="73.714" cy="99.509" rx=".504" ry=".501"/><ellipse cx="6.801" cy="87.2" rx=".505" ry=".503"/><ellipse cx="41.872" cy="93.672" rx=".505" ry=".503"/><ellipse cx="17.238" cy="86.799" rx=".505" ry=".503"/><ellipse cx="21.601" cy="93.885" rx=".505" ry=".503"/><ellipse cx="53.712" cy="89.422" rx=".504" ry=".501"/><ellipse cx="71.415" cy="79.479" rx=".504" ry=".501"/><ellipse cx="84.837" cy="85.582" rx=".504" ry=".501"/><ellipse cx="89.411" cy="88.495" rx=".504" ry=".501"/><ellipse cx="90.163" cy="80.55" rx=".504" ry=".501"/><ellipse cx="23.427" cy="69.302" rx=".504" ry=".501"/><ellipse cx="23.619" cy="80.818" rx=".673" ry=".67"/><ellipse cx="27.655" cy="89.298" rx=".673" ry=".67"/><ellipse cx="76.002" cy="80.46" rx=".673" ry=".67"/><ellipse cx="93.403" cy="79.479" rx=".673" ry=".67"/><ellipse cx="84.792" cy="75.819" rx=".673" ry=".67"/><ellipse cx="76.002" cy="76.176" rx=".673" ry=".67"/><path d="M57.87 7.868l1.672-.16-1.67-.093A.74.74 0 0 0 57.236 7l-.16-1.657-.096 1.67a.736.736 0 0 0-.571.631l-1.71.155 1.722.092a.739.739 0 0 0 .589.566l.155 1.708.092-1.705a.748.748 0 0 0 .612-.592zM29.636 26.403l1.673-.16-1.67-.093a.739.739 0 0 0-.637-.615l-.16-1.657-.094 1.67a.736.736 0 0 0-.573.631l-1.71.155 1.722.092a.739.739 0 0 0 .59.566l.155 1.708.092-1.705a.743.743 0 0 0 .612-.592zM92.177 75.408l1.673-.16-1.67-.093a.739.739 0 0 0-.637-.614l-.16-1.658-.094 1.67a.736.736 0 0 0-.571.632l-1.71.154 1.722.093a.739.739 0 0 0 .589.565l.155 1.708.093-1.705a.744.744 0 0 0 .61-.592zM23.985 101.03l1.673-.158-1.67-.094a.74.74 0 0 0-.637-.615l-.16-1.655-.094 1.669a.736.736 0 0 0-.573.63l-1.71.155 1.722.093a.737.737 0 0 0 .59.565l.155 1.708.093-1.705a.744.744 0 0 0 .611-.592zM86.863 88.533l1.672-.159-1.67-.094a.739.739 0 0 0-.636-.614l-.16-1.657-.094 1.669a.736.736 0 0 0-.572.63l-1.71.155 1.722.093a.739.739 0 0 0 .59.565l.155 1.708.093-1.705a.741.741 0 0 0 .61-.59z"/></g><path d="M83.071 45.695c-6.977 2.699-13.782 5.107-19.524 6.896C51.88 56.227 19.955 66.07.67 78.479l1.614.624c11.75-6.605 19.388-8.68 26.73-10.98 7.983-2.5 33.79-8.51 45.476-11.783a198.276 198.276 0 0 0 13.47-4.315 119.619 119.619 0 0 0-4.889-6.33zm8.525 11.692c-1.69 1.136-3.105 2.042-4.097 2.613-5.74 3.303-33.727 22.317-40.094 26.691-6.367 4.374-24.039 20.978-29.241 25.799l-.18 1.962C34.758 99.455 40.02 95.756 46.687 90.708 54.94 84.46 72.01 72.9 77.812 69.195a1010.067 1010.067 0 0 0 15.038-9.778l-.22-.368c-.338-.552-.683-1.105-1.034-1.662zm26.22-27.56c-8.172 4.767-21.05 10.52-33.546 15.402a108.369 108.369 0 0 1 4.845 6.377c9.822-3.6 20.6-8.433 29.15-14.282-4.073 3.842-17.541 13.86-25.753 19.443a88.59 88.59 0 0 1 1.229 2.055c12.44-8.286 20.812-14.384 25.69-18.463 6.728-5.623 22.066-18.21 27.896-35.082-10.227 12.945-22.318 20.353-29.512 24.55z" fill="#FC3D21"/><path d="M61.12 74.787c-1.324-1.657-3.153-3.877-4.527-5.598a104.122 104.122 0 0 1-5.095-6.95l-1.522.38a105.66 105.66 0 0 0 6.245 8.687c1.662 2.083 3.173 3.76 3.948 4.802.157.212.468.679.888 1.3l1.466-.99a29.811 29.811 0 0 1-1.403-1.63zm9.657 8.725c-1.087-1.024-3.723-2.733-6.466-5.298-.605.413-1.217.833-1.83 1.255 1.772 2.485 4.185 5.537 6.074 6.426 2.847 1.342 3.614-1.071 2.222-2.383zm14.386-37.18C69.478 26.684 50.317 15.89 42.056 22.422c-6.416 5.074-3.782 19.901 5.062 35.477.457-.156.91-.31 1.359-.461-8.927-15.176-11.37-29.279-5.318-34.065 7.605-6.013 25.967 4.822 41.198 23.9 3.153 3.949 5.924 7.912 8.272 11.776 8.987 14.804 11.745 28.191 5.535 33.656-1.9 1.672-7.706 2.328-15.312-1.079-.107.133.064.491.197.579 6.566 2.627 12.855 3.629 16.03 1.119 7.63-6.035 1.769-27.345-13.916-46.992z" fill="#FFF"/><g fill="#FFF"><path d="M17.893 48.663H27.94L36.371 62.9V51.787c0-1.25-1.592-2.879-2.153-3.124h6.951c-.426.112-1.794 1.763-1.794 3.124v16.336c0 1.005 1.458 2.388 2.153 2.924h-9.687l-8.566-14.305V67.99c0 1.115 1.099 2.187 2.242 3.102h-7.4c1.054-.447 2.063-1.853 2.153-2.969.09-1.115 0-15.51 0-16.135 0-1.361-1.323-2.477-2.377-3.325zM109.788 71.047h13.364c-.74-.179-1.57-1.049-2.018-2.21-.448-1.16-7.534-20.174-7.534-20.174h-5.082a409.524 409.524 0 0 1-4.634 3.269c-.004.041-.009.083-.016.123-.222 1.34-4.198 15.673-4.44 16.38-.337.983-2.063 2.076-2.759 2.657h7.199c-.718-.804-1.301-1.585-1.166-2.478.134-.892.538-2.678.538-2.678h7.445c.336.893.587 1.695.717 2.455.157.915-.785 1.942-1.614 2.656zm-5.876-7.967l2.512-8.168 3.319 8.168h-5.83zm-1.131-13.602l1.109-.815h-1.95c.193.178.515.46.84.815zM51.664 68.614c.135-.892.538-2.678.538-2.678h7.445c.336.893.588 1.695.718 2.455.157.915-.785 1.942-1.615 2.656h11.767l.732-.49c-.456-.401-.876-1.004-1.152-1.72-.449-1.16-7.535-20.174-7.535-20.174h-11.66c.56.513 2.175 1.897 1.928 3.392-.22 1.34-4.198 15.673-4.44 16.38-.336.983-2.063 2.076-2.758 2.657h7.198c-.718-.804-1.3-1.585-1.166-2.478zm3.722-13.702l3.32 8.168h-5.831l2.511-8.168zM92.31 59.774a919.596 919.596 0 0 1-6.95 4.56c1.094.528 1.966 1.192 2.05 2.049.155 1.61-3.095 2.388-6.032 2.053a7.288 7.288 0 0 1-1.715-.426c-.61.392-1.226.786-1.85 1.185-.636.406-1.408.906-2.288 1.483v2.31c.583-1.138 1.858-2.157 2.848-2.209.426-.022 1.906 1.34 8.005 1.004 2.96-.162 8.678-3.303 8.589-6.918-.054-2.136-1.175-3.803-2.657-5.091zm-16.787 5.582v2.354c.54-.359 1.072-.711 1.594-1.055-.82-.568-1.402-1.1-1.594-1.299zm14.702-7.06a20.47 20.47 0 0 0-1.696-.886c-2.87-1.34-5.875-1.585-6.503-3.392-.442-1.276.808-2.455 3.857-2.41 3.05.044 5.876 1.852 6.638 2.499v-5.758c-.224.223-1.208 1.346-2.108 1.16a39.585 39.585 0 0 0-8.028-.803c-3.857.022-7.176 2.99-7.288 6.74-.157 5.244 4.06 6.673 6.436 7.498.245.085.525.176.828.273 2.28-1.476 4.083-2.613 5.138-3.218.709-.407 1.637-.99 2.726-1.703z"/></g></g></svg>